<svg xmlns="http://www.w3.org/2000/svg" width="17.552" height="17.552" viewBox="0 0 17.552 17.552">
  <g transform="translate(-28.177 -26.819)">
    <path
      d="M36.953,44.371A8.776,8.776,0,1,1,45.729,35.6,8.776,8.776,0,0,1,36.953,44.371Zm0-15.182A6.407,6.407,0,1,0,43.36,35.6,6.407,6.407,0,0,0,36.953,29.189Z"
      fill="#f90000"/>
    <path
      d="M40.153,33.233l-.837-.837-2.363,2.363L34.59,32.4l-.837.837L36.116,35.6l-2.363,2.363.837.837,2.363-2.363L39.316,38.8l.837-.837L37.79,35.6Z"
      fill="#f90000"/>
  </g>
</svg>
